<?xml version="1.0" encoding="UTF-8"?>
<svg xmlns="http://www.w3.org/2000/svg" xmlns:xlink="http://www.w3.org/1999/xlink" width="150px" height="150px" viewBox="0 0 150 150" version="1.1">
<g id="surface1">
<rect x="0" y="0" width="150" height="150" style="fill:rgb(96.862745%,87.45098%,11.764706%);fill-opacity:1;stroke:none;"/>
<path style=" stroke:none;fill-rule:nonzero;fill:rgb(0%,0%,0%);fill-opacity:1;" d="M 39.441406 125.351562 L 50.917969 118.402344 C 53.132812 122.332031 55.148438 125.652344 59.980469 125.652344 C 64.613281 125.652344 67.535156 123.839844 67.535156 116.792969 L 67.535156 68.863281 L 81.628906 68.863281 L 81.628906 116.992188 C 81.628906 131.59375 73.070312 138.238281 60.585938 138.238281 C 49.308594 138.238281 42.761719 132.398438 39.441406 125.351562 M 89.285156 123.839844 L 100.761719 117.195312 C 103.785156 122.128906 107.710938 125.753906 114.660156 125.753906 C 120.5 125.753906 124.222656 122.832031 124.222656 118.804688 C 124.222656 113.972656 120.398438 112.261719 113.953125 109.441406 L 110.429688 107.929688 C 100.261719 103.601562 93.515625 98.164062 93.515625 86.6875 C 93.515625 76.113281 101.570312 68.058594 114.15625 68.058594 C 123.117188 68.058594 129.5625 71.179688 134.191406 79.335938 L 123.21875 86.382812 C 120.800781 82.054688 118.183594 80.34375 114.15625 80.34375 C 110.027344 80.34375 107.410156 82.960938 107.410156 86.382812 C 107.410156 90.613281 110.027344 92.328125 116.066406 94.945312 L 119.589844 96.453125 C 131.574219 101.589844 138.320312 106.824219 138.320312 118.605469 C 138.320312 131.292969 128.351562 138.238281 114.960938 138.238281 C 101.871094 138.238281 93.414062 131.996094 89.285156 123.839844 "/>
</g>
</svg>
