<?xml version="1.0" encoding="UTF-8"?>
<svg xmlns="http://www.w3.org/2000/svg" xmlns:xlink="http://www.w3.org/1999/xlink" width="150px" height="150px" viewBox="0 0 150 150" version="1.1">
<defs>
<linearGradient id="linear0" gradientUnits="userSpaceOnUse" x1="0.15791" y1="0.14737" x2="0.91009" y2="0.85228" gradientTransform="matrix(140.488281,0,0,149.90625,0,0.09375)">
<stop offset="0" style="stop-color:rgb(0%,0%,0%);stop-opacity:1;"/>
<stop offset="1" style="stop-color:rgb(100%,100%,100%);stop-opacity:1;"/>
</linearGradient>
<linearGradient id="linear1" gradientUnits="userSpaceOnUse" x1="0.82136" y1="0.85237" x2="-0.03113" y2="0.1479" gradientTransform="matrix(123.957031,0,0,149.90625,26.042969,0.09375)">
<stop offset="0" style="stop-color:rgb(0%,0%,0%);stop-opacity:1;"/>
<stop offset="1" style="stop-color:rgb(100%,100%,100%);stop-opacity:1;"/>
</linearGradient>
</defs>
<g id="surface1">
<path style=" stroke:none;fill-rule:nonzero;fill:url(#linear0);" d="M 74.871094 111.65625 C 108.058594 156.894531 140.535156 99.03125 140.488281 64.230469 C 140.429688 23.089844 98.730469 0.09375 74.847656 0.09375 C 36.507812 0.09375 0 31.777344 0 75.125 C 0 123.3125 41.851562 150 74.847656 150 C 67.378906 148.925781 42.496094 143.59375 42.164062 86.28125 C 41.9375 47.519531 54.808594 32.03125 74.792969 38.84375 C 75.238281 39.011719 96.835938 47.53125 96.835938 75.359375 C 96.835938 103.074219 74.871094 111.65625 74.871094 111.65625 Z M 74.871094 111.65625 "/>
<path style=" stroke:none;fill-rule:nonzero;fill:url(#linear1);" d="M 74.835938 38.8125 C 52.90625 31.253906 26.042969 49.328125 26.042969 85.527344 C 26.042969 144.636719 69.84375 150 75.152344 150 C 113.492188 150 150 118.316406 150 74.964844 C 150 26.78125 108.148438 0.09375 75.152344 0.09375 C 84.292969 -1.171875 124.410156 9.984375 124.410156 64.816406 C 124.410156 100.570312 94.457031 120.039062 74.972656 111.722656 C 74.523438 111.554688 52.925781 103.035156 52.925781 75.207031 C 52.925781 47.492188 74.835938 38.8125 74.835938 38.8125 Z M 74.835938 38.8125 "/>
</g>
</svg>
