<?xml version="1.0" encoding="UTF-8"?>
<svg xmlns="http://www.w3.org/2000/svg" xmlns:xlink="http://www.w3.org/1999/xlink" width="150px" height="150px" viewBox="0 0 150 150" version="1.1">
<g id="surface1">
<path style=" stroke:none;fill-rule:nonzero;fill:rgb(38.039216%,50.588235%,71.372549%);fill-opacity:1;" d="M 75 38.71875 C 35.460938 38.71875 3.40625 54.960938 3.40625 75 C 3.40625 95.039062 35.460938 111.28125 75 111.28125 C 114.539062 111.28125 146.59375 95.039062 146.59375 75 C 146.59375 54.960938 114.539062 38.71875 75 38.71875 Z M 56.371094 82.070312 C 54.664062 83.667969 52.765625 84.328125 50.675781 85.007812 C 48.585938 85.6875 45.925781 85.546875 42.695312 85.546875 L 35.367188 85.546875 L 33.335938 97.265625 L 24.78125 97.265625 L 32.414062 57.421875 L 48.867188 57.421875 C 53.816406 57.421875 57.429688 58.847656 59.699219 61.445312 C 61.96875 64.042969 62.648438 67.730469 61.746094 72.386719 C 61.371094 74.304688 60.742188 76.085938 59.851562 77.675781 C 58.964844 79.265625 57.804688 80.75 56.371094 82.070312 Z M 81.34375 85.546875 L 84.71875 68.648438 C 85.105469 66.671875 84.964844 65.199219 84.296875 64.484375 C 83.628906 63.761719 82.210938 63.28125 80.039062 63.28125 L 73.253906 63.28125 L 68.878906 85.546875 L 60.390625 85.546875 L 68.027344 46.875 L 76.515625 46.875 L 74.484375 57.421875 L 82.046875 57.421875 C 86.804688 57.421875 90.085938 58.378906 91.894531 60.035156 C 93.699219 61.695312 94.242188 63.96875 93.519531 67.6875 L 89.96875 85.546875 Z M 128.523438 72.449219 C 128.148438 74.367188 127.519531 76.121094 126.632812 77.707031 C 125.746094 79.296875 124.585938 80.75 123.152344 82.070312 C 121.441406 83.667969 119.542969 84.328125 117.457031 85.007812 C 115.367188 85.6875 112.707031 85.546875 109.472656 85.546875 L 102.144531 85.546875 L 100.117188 97.265625 L 91.558594 97.265625 L 99.195312 57.421875 L 115.648438 57.421875 C 120.597656 57.421875 124.207031 58.847656 126.476562 61.445312 C 128.746094 64.042969 129.429688 67.792969 128.523438 72.449219 Z M 112.40625 63.28125 L 106.542969 63.28125 L 103.347656 79.6875 L 108.554688 79.6875 C 112 79.6875 114.574219 79.347656 116.261719 78.046875 C 117.949219 76.75 119.089844 74.734375 119.679688 71.695312 C 120.246094 68.773438 119.988281 66.5 118.90625 65.296875 C 117.824219 64.097656 115.65625 63.28125 112.40625 63.28125 Z M 45.625 63.28125 L 39.765625 63.28125 L 36.566406 79.6875 L 41.773438 79.6875 C 45.222656 79.6875 47.792969 79.347656 49.480469 78.046875 C 51.167969 76.75 52.308594 74.734375 52.898438 71.695312 C 53.464844 68.773438 53.207031 66.5 52.125 65.296875 C 51.042969 64.097656 48.875 63.28125 45.625 63.28125 Z M 45.625 63.28125 "/>
</g>
</svg>
